<svg role="img" viewBox="0 0 100 100" xmlns="http://www.w3.org/2000/svg" id="Wantedly--Streamline-Simple-Icons.svg" height="100" width="100"><desc>Wantedly Streamline Icon: https://streamlinehq.com</desc><title>Wantedly</title><path d="M76.8875 60.645833333333336c-0.7125000000000001 -0.4625 -2.741666666666667 -3.1833333333333336 -8.358333333333333 -16.59166666666667a38.300000000000004 38.300000000000004 0 0 0 -0.9875 -2.191666666666667l-1.1416666666666668 -2.766666666666667 -9.841666666666669 -23.758333333333336H36.875l9.841666666666669 23.758333333333336 9.841666666666669 23.775000000000002 9.0875 21.945833333333336a0.8166666666666668 0.8166666666666668 0 0 0 1.5083333333333333 0l9.887500000000001 -23.675000000000004a0.41666666666666674 0.41666666666666674 0 0 0 -0.15416666666666667 -0.49583333333333335zm-36.875 0c-0.7125000000000001 -0.4625 -2.741666666666667 -3.1833333333333336 -8.358333333333333 -16.59166666666667a37.37916666666667 37.37916666666667 0 0 0 -0.9833333333333334 -2.1875000000000004l-1.1500000000000001 -2.7708333333333335 -9.833333333333334 -23.758333333333336H0l9.841666666666669 23.758333333333336 9.841666666666669 23.775000000000002 9.0875 21.945833333333336a0.8166666666666668 0.8166666666666668 0 0 0 1.5083333333333333 0l9.891666666666667 -23.675000000000004a0.4083333333333334 0.4083333333333334 0 0 0 -0.15833333333333335 -0.49583333333333335ZM100 26.562500000000004a11.879166666666668 11.879166666666668 0 0 1 -11.879166666666668 11.883333333333333 11.879166666666668 11.879166666666668 0 0 1 -11.883333333333333 -11.883333333333333 11.879166666666668 11.879166666666668 0 0 1 11.883333333333333 -11.879166666666668A11.879166666666668 11.879166666666668 0 0 1 100 26.562500000000004Z" fill="#000000" strokeWidth="1"></path></svg>
